<svg width="22" height="23" viewBox="0 0 22 23" fill="none" xmlns="http://www.w3.org/2000/svg">
<path d="M15.75 14V9C15.75 7.67392 15.2232 6.40215 14.2855 5.46447C13.3479 4.52678 12.0761 4 10.75 4C9.42392 4 8.15215 4.52678 7.21447 5.46447C6.27678 6.40215 5.75 7.67392 5.75 9V14C5.75 15.87 5.75 16.804 6.152 17.5C6.41529 17.956 6.79398 18.3347 7.25 18.598C7.946 19 8.88 19 10.75 19C12.62 19 13.554 19 14.25 18.598C14.706 18.3347 15.0847 17.956 15.348 17.5C15.75 16.804 15.75 15.87 15.75 14Z" stroke="#D5EE1D" stroke-width="1.5" stroke-linejoin="round"/>
<path d="M16.75 22C16.75 21.4696 16.9607 20.9609 17.3358 20.5858C17.7109 20.2107 18.2196 20 18.75 20C19.2804 20 19.7891 20.2107 20.1642 20.5858C20.5393 20.9609 20.75 21.4696 20.75 22M0.75 22C0.75 21.4696 0.960714 20.9609 1.33579 20.5858C1.71086 20.2107 2.21957 20 2.75 20C3.28043 20 3.78914 20.2107 4.16421 20.5858C4.53929 20.9609 4.75 21.4696 4.75 22" stroke="#D5EE1D" stroke-width="1.5" stroke-linecap="round" stroke-linejoin="round"/>
<path d="M18.75 20V16C18.75 14.114 18.75 13.172 18.164 12.586C17.578 12 16.636 12 14.75 12H6.75C4.864 12 3.922 12 3.336 12.586C2.75 13.172 2.75 14.114 2.75 16V20" stroke="#D5EE1D" stroke-width="1.5" stroke-linecap="round" stroke-linejoin="round"/>
<path d="M12.742 8.5H12.751M8.75 8.5H8.759" stroke="#D5EE1D" stroke-width="2" stroke-linecap="round" stroke-linejoin="round"/>
<path d="M6.02381 3.78906L6.64256 3.17031C6.691 3.12187 6.691 3.04219 6.64256 2.99375L5.58163 1.93281C5.55813 1.90955 5.52641 1.8965 5.49334 1.8965C5.46028 1.8965 5.42856 1.90955 5.40506 1.93281L4.78631 2.55156C4.76305 2.57506 4.75 2.60678 4.75 2.63984C4.75 2.67291 4.76305 2.70463 4.78631 2.72813L5.84725 3.78906C5.89569 3.8375 5.97381 3.8375 6.02381 3.78906ZM16.4863 2.55156L15.8676 1.93281C15.8441 1.90955 15.8123 1.8965 15.7793 1.8965C15.7462 1.8965 15.7145 1.90955 15.691 1.93281L14.6301 2.99375C14.6068 3.01724 14.5938 3.04897 14.5938 3.08203C14.5938 3.11509 14.6068 3.14682 14.6301 3.17031L15.2488 3.78906C15.2973 3.8375 15.3769 3.8375 15.4254 3.78906L16.4863 2.72813C16.5348 2.67813 16.5348 2.6 16.4863 2.55156ZM10.1973 1.75H11.0723C11.141 1.75 11.1973 1.69375 11.1973 1.625V0.125C11.1973 0.05625 11.141 0 11.0723 0H10.1973C10.1285 0 10.0723 0.05625 10.0723 0.125V1.625C10.0723 1.69375 10.1285 1.75 10.1973 1.75Z" fill="#D5EE1D"/>
</svg>
